Naruto Shippuden Episode 279


Title: The White Zetsu's Trap

Release date : September 13th, 2012

Audio language : Japanese

SubTitle language : English


General

Format : MPEG-4
Format profile : Base Media / Version 2
Codec ID : mp42
File size : 37.7 MiB
Duration : 23mn 9s
Overall bit rate mode : Variable
Overall bit rate : 227 Kbps
Encoded date : UTC 2012-09-13 11:02:49
Tagged date : UTC 2012-09-13 11:04:28
Writing application : HandBrake 0.9.8 2012071700


Video

Format : AVC
Format/Info : Advanced Video Codec
Format profile : Main@L2.2
Format settings, CABAC : Yes
Format settings, ReFrames : 1 frame
Codec ID : avc1
Codec ID/Info : Advanced Video Coding
Duration : 23mn 9s
Bit rate mode : Variable
Bit rate : 161 Kbps
Width : 640 pixels
Height : 352 pixels
Display aspect ratio : 16:9
Original display aspect ratio : 16:9
Frame rate mode : Constant
Frame rate : 15.000 fps
Color space : YUV
Chroma subsampling : 4:2:0
Bit depth : 8 bits
Scan type : Progressive
Bits/(Pixel*Frame) : 0.048
Stream size : 26.7 MiB (71%)
Writing library : x264 core 120


Audio

Format : AAC
Format/Info : Advanced Audio Codec
Format profile : LC
Codec ID : 40
Duration : 23mn 9s
Bit rate mode : Variable
Bit rate : 63.8 Kbps
Maximum bit rate : 120 Kbps
Channel(s) : 2 channels
Channel positions : Front: L R
Sampling rate : 44.1 KHz
Compression mode : Lossy
Stream size : 10.6 MiB (28%)
Encoded date : UTC 2012-09-13 11:02:49
Tagged date : UTC 2012-09-13 11:04:27
